<svg version="1.1" viewBox="0.0 0.0 480.0 480.0" fill="none" stroke="none" stroke-linecap="square" stroke-miterlimit="10" xmlns:xlink="http://www.w3.org/1999/xlink" xmlns="http://www.w3.org/2000/svg"><clipPath id="p.0"><path d="m0 0l480.0 0l0 480.0l-480.0 0l0 -480.0z" clip-rule="nonzero"/></clipPath><g clip-path="url(#p.0)"><path fill="#000000" fill-opacity="0.0" d="m0 0l480.0 0l0 480.0l-480.0 0z" fill-rule="evenodd"/><path fill="#000000" fill-opacity="0.0" d="m14.551181 89.42408l0 0c0 -41.542503 33.67685 -75.21935 75.21935 -75.21935l300.86838 0l0 0c19.949402 0 39.081757 7.9248743 53.18811 22.031239c14.106354 14.106365 22.03125 33.2387 22.03125 53.188118l0 301.15186c0 41.54251 -33.67685 75.21936 -75.21936 75.21936l-300.86838 0c-41.5425 0 -75.21935 -33.67685 -75.21935 -75.21936z" fill-rule="evenodd"/><path stroke="#d92e2d" stroke-width="24.0" stroke-linejoin="round" stroke-linecap="butt" d="m14.551181 89.42408l0 0c0 -41.542503 33.67685 -75.21935 75.21935 -75.21935l300.86838 0l0 0c19.949402 0 39.081757 7.9248743 53.18811 22.031239c14.106354 14.106365 22.03125 33.2387 22.03125 53.188118l0 301.15186c0 41.54251 -33.67685 75.21936 -75.21936 75.21936l-300.86838 0c-41.5425 0 -75.21935 -33.67685 -75.21935 -75.21936z" fill-rule="evenodd"/><path fill="#000000" fill-opacity="0.0" d="m-1.2204725 48.779526l480.0 0l0 431.2126l-480.0 0z" fill-rule="evenodd"/><path fill="#d92e2d" d="m53.90828 54.17708l67.140625 0q19.9375 0 29.734375 1.65625q9.796875 1.65625 17.53125 6.9375q7.734375 5.265625 12.890625 14.03125q5.15625 8.765625 5.15625 19.65625q0 11.796875 -6.359375 21.65625q-6.359375 9.84375 -17.25 14.78125q15.359375 4.46875 23.609375 15.234375q8.25 10.765625 8.25 25.3125q0 11.46875 -5.328125 22.296875q-5.328125 10.828125 -14.5625 17.296875q-9.21875 6.46875 -22.734375 7.96875q-8.484375 0.90625 -40.90625 1.140625l-57.171875 0l0 -167.96875zm33.921875 27.953125l0 38.84375l22.21875 0q19.828125 0 24.640625 -0.578125q8.703125 -1.03125 13.6875 -6.015625q4.984375 -4.984375 4.984375 -13.109375q0 -7.796875 -4.296875 -12.65625q-4.296875 -4.875 -12.78125 -5.90625q-5.03125 -0.578125 -28.984375 -0.578125l-19.46875 0zm0 66.796875l0 44.921875l31.390625 0q18.328125 0 23.25 -1.03125q7.5625 -1.375 12.3125 -6.703125q4.765625 -5.328125 4.765625 -14.265625q0 -7.5625 -3.671875 -12.828125q-3.65625 -5.28125 -10.59375 -7.6875q-6.9375 -2.40625 -30.078125 -2.40625l-27.375 0zm134.39873 73.21875l0 -167.96875l33.90625 0l0 167.96875l-33.90625 0zm66.57004 0l0 -167.96875l33.0 0l68.734375 112.171875l0 -112.171875l31.515625 0l0 167.96875l-34.03125 0l-67.71875 -109.53125l0 109.53125l-31.5 0z" fill-rule="nonzero"/><path fill="#d92e2d" d="m151.47513 371.59583l0 -28.3125l73.09375 0l0 66.921875q-10.65625 10.3125 -30.875 18.15625q-20.21875 7.84375 -40.96875 7.84375q-26.34375 0 -45.9375 -11.046875q-19.59375 -11.0625 -29.453125 -31.625q-9.84375 -20.5625 -9.84375 -44.75q0 -26.234375 11.0 -46.625q11.0 -20.40625 32.1875 -31.28125q16.15625 -8.375 40.21875 -8.375q31.28125 0 48.859375 13.125q17.59375 13.125 22.640625 36.265625l-33.6875 6.296875q-3.546875 -12.375 -13.34375 -19.53125q-9.796875 -7.15625 -24.46875 -7.15625q-22.234375 0 -35.359375 14.09375q-13.109375 14.09375 -13.109375 41.8125q0 29.90625 13.28125 44.859375q13.296875 14.953125 34.84375 14.953125q10.65625 0 21.359375 -4.171875q10.71875 -4.1875 18.40625 -10.15625l0 -21.296875l-38.84375 0zm97.50752 -21.203125q0 -25.671875 7.6718903 -43.078125q5.734375 -12.84375 15.640625 -23.03125q9.90625 -10.203125 21.71875 -15.125q15.6875 -6.65625 36.203125 -6.65625q37.125 0 59.40625 23.03125q22.28125 23.03125 22.28125 64.0625q0 40.671875 -22.109375 63.640625q-22.109375 22.96875 -59.125 22.96875q-37.46875 0 -59.578125 -22.859375q-22.10939 -22.859375 -22.10939 -62.953125zm34.937515 -1.140625q0 28.515625 13.171875 43.25q13.1875 14.71875 33.46875 14.71875q20.28125 0 33.28125 -14.609375q13.0 -14.609375 13.0 -43.828125q0 -28.875 -12.65625 -43.078125q-12.65625 -14.203125 -33.625 -14.203125q-20.96875 0 -33.8125 14.375q-12.828125 14.375 -12.828125 43.375z" fill-rule="nonzero"/></g></svg>